<?xml version="1.0" encoding="UTF-8"?>
<svg id="Layer_1" data-name="Layer 1" xmlns="http://www.w3.org/2000/svg" viewBox="0 0 32 32">
  <defs>
    <style>
      .cls-1 {
        fill: #fff;
      }

      .cls-1, .cls-2 {
        stroke-width: 0px;
      }

      .cls-2 {
        fill: #ed3224;
      }
    </style>
  </defs>
  <g>
    <path class="cls-1" d="M22.74.02h-13.48C4.16.02.02,4.16.02,9.26v13.49C.02,27.84,4.16,31.98,9.26,31.98h13.48c5.09,0,9.24-4.14,9.24-9.24v-13.49C31.98,4.16,27.84.02,22.74.02ZM30.77,22.74c0,4.42-3.61,8.03-8.03,8.03h-13.48c-4.42,0-8.03-3.61-8.03-8.03v-13.49C1.23,4.84,4.84,1.23,9.26,1.23h13.48c4.42,0,8.03,3.61,8.03,8.03v13.49Z"/>
    <path class="cls-2" d="M9.26,1.23h13.48c4.43,0,8.03,3.6,8.03,8.03v13.48c0,4.43-3.6,8.03-8.03,8.03h-13.48c-4.43,0-8.03-3.6-8.03-8.03v-13.48C1.23,4.83,4.83,1.23,9.26,1.23Z"/>
  </g>
  <g>
    <g>
      <path class="cls-1" d="M17.88,17.72h-4.93V6.71h4.93c.77,0,1.49.14,2.16.43.67.29,1.26.68,1.76,1.18.5.5.9,1.08,1.19,1.75.29.67.43,1.39.43,2.14s-.15,1.47-.43,2.14c-.29.67-.68,1.26-1.19,1.75-.5.5-1.09.89-1.76,1.18-.67.29-1.39.43-2.16.43M17.54,9.39h-1.69v5.65h1.69c.4,0,.77-.07,1.11-.22.35-.15.65-.35.9-.6.25-.26.46-.56.6-.9.15-.35.22-.71.22-1.1s-.07-.75-.22-1.1c-.15-.35-.35-.65-.6-.9-.26-.26-.56-.46-.9-.6-.35-.15-.72-.22-1.11-.22"/>
      <rect class="cls-1" x="8.75" y="6.75" width="2.97" height="6.77"/>
      <path class="cls-1" d="M8.74,16.24c0-.82.67-1.49,1.49-1.49s1.49.67,1.49,1.49-.67,1.49-1.49,1.49-1.49-.67-1.49-1.49"/>
    </g>
    <g>
      <g>
        <rect class="cls-1" x="6.85" y="20.17" width=".52" height="1.95"/>
        <polygon class="cls-1" points="8.89 22.12 8.21 21.08 8.21 22.12 7.69 22.12 7.69 20.17 8.21 20.17 8.89 21.22 8.89 20.17 9.41 20.17 9.41 22.12 8.89 22.12"/>
        <polygon class="cls-1" points="11.24 20.66 10.7 20.66 10.7 22.12 10.17 22.12 10.17 20.66 9.63 20.66 9.6 20.62 9.6 20.17 11.27 20.17 11.27 20.62 11.24 20.66"/>
        <polygon class="cls-1" points="11.47 22.12 11.47 20.17 13.03 20.17 13.03 20.64 11.98 20.64 11.98 20.92 12.97 20.92 12.97 21.38 11.98 21.38 11.98 21.66 13.03 21.66 13.03 22.12 11.47 22.12"/>
        <path class="cls-1" d="M14.51,22.12l-.34-.6h-.33v.6s-.54,0-.54,0v-1.95h.98s.09.01.14.03c.05.02.1.04.14.07.05.03.09.06.13.1.04.04.07.08.1.11.03.05.06.11.08.17.02.06.03.13.03.18,0,.1-.02.19-.07.27-.05.08-.11.15-.19.21l.46.8h-.58ZM14.13,20.61h-.31v.42h.31s.06,0,.09-.02c.03-.01.05-.02.07-.04.02-.02.03-.04.05-.07.01-.03.02-.05.02-.08,0-.03,0-.06-.02-.08-.01-.02-.03-.05-.05-.07-.02-.02-.05-.03-.07-.04-.03-.01-.06-.02-.09-.02"/>
        <path class="cls-1" d="M16.52,22.12l-.1-.27h-.6l-.1.27h-.55l.72-1.95h.46l.72,1.95h-.55ZM16.12,20.89l-.16.51h.31l-.15-.51Z"/>
        <path class="cls-1" d="M18.05,22.11c-.14,0-.26-.03-.38-.08-.12-.05-.22-.12-.31-.21-.09-.09-.16-.19-.21-.31-.05-.12-.08-.24-.08-.37s.03-.26.08-.38c.05-.12.12-.22.21-.31.09-.09.19-.16.31-.21.12-.05.24-.08.38-.08.12,0,.24.02.35.07.11.04.22.11.31.19l-.38.33c-.09-.06-.19-.1-.29-.1-.07,0-.13.01-.18.04-.06.03-.1.06-.15.1-.04.04-.07.1-.1.15-.03.06-.04.12-.04.18s.01.12.04.18c.02.06.06.11.1.15.04.04.09.08.15.1.06.03.12.04.18.04.08,0,.15-.02.21-.05.07-.03.12-.08.17-.15l.39.32c-.1.12-.21.21-.35.28-.13.06-.28.1-.43.1"/>
        <polygon class="cls-1" points="20.57 20.66 20.03 20.66 20.03 22.12 19.5 22.12 19.5 20.66 18.97 20.66 18.93 20.62 18.93 20.17 20.6 20.17 20.6 20.62 20.57 20.66"/>
        <rect class="cls-1" x="20.83" y="20.17" width=".53" height="1.95"/>
        <polygon class="cls-1" points="22.73 22.12 22.26 22.12 21.53 20.18 22.12 20.18 22.49 21.19 22.87 20.18 23.45 20.18 22.73 22.12"/>
        <polygon class="cls-1" points="23.6 22.12 23.6 20.17 25.15 20.17 25.15 20.64 24.11 20.64 24.11 20.92 25.09 20.92 25.09 21.38 24.11 21.38 24.11 21.66 25.15 21.66 25.15 22.12 23.6 22.12"/>
      </g>
      <g>
        <path class="cls-1" d="M7.72,25.29h-.87v-1.95h.87c.14,0,.26.03.38.08.12.05.22.12.31.21.09.09.16.19.21.31.05.12.08.25.08.38s-.03.26-.08.38c-.05.12-.12.22-.21.31-.09.09-.19.16-.31.21-.12.05-.25.08-.38.08M7.66,23.82h-.3v1h.3c.07,0,.14-.01.2-.04.06-.03.11-.06.16-.11.04-.04.08-.1.11-.16.02-.06.04-.13.04-.19s-.01-.13-.04-.19c-.03-.06-.06-.11-.11-.16-.05-.04-.1-.08-.16-.11-.06-.03-.13-.04-.2-.04"/>
        <rect class="cls-1" x="8.88" y="23.34" width=".53" height="1.95"/>
        <path class="cls-1" d="M11.18,25.29v-.11c-.14.07-.29.11-.45.11-.14,0-.27-.02-.38-.08-.12-.05-.22-.12-.31-.21-.09-.09-.16-.19-.2-.31-.05-.12-.07-.25-.07-.38s.03-.26.07-.38c.05-.12.12-.22.21-.31.09-.09.19-.16.31-.21.12-.05.25-.08.38-.08.15,0,.28.03.41.09.13.06.24.15.34.27l-.4.27s-.1-.09-.16-.11c-.06-.03-.12-.04-.19-.04-.07,0-.13.01-.19.04-.06.03-.11.07-.15.11-.04.04-.08.1-.1.16-.02.06-.04.12-.04.19s.01.13.04.2c.03.06.06.12.1.16.04.05.1.08.16.11.06.03.12.04.19.04.07,0,.15-.02.21-.05.07-.03.12-.08.17-.14h-.33v-.44h.81v1.1h-.42Z"/>
        <rect class="cls-1" x="11.92" y="23.34" width=".53" height="1.95"/>
        <polygon class="cls-1" points="14.36 23.83 13.82 23.83 13.82 25.29 13.29 25.29 13.29 23.83 12.76 23.83 12.72 23.79 12.72 23.34 14.4 23.34 14.4 23.79 14.36 23.83"/>
        <path class="cls-1" d="M15.55,25.29l-.1-.27h-.6l-.1.27h-.55l.72-1.95h.46l.72,1.95h-.55ZM15.15,24.06l-.16.51h.31l-.15-.51Z"/>
        <polygon class="cls-1" points="16.3 25.29 16.3 23.35 16.84 23.35 16.84 24.81 17.87 24.81 17.87 25.29 16.3 25.29"/>
      </g>
    </g>
  </g>
</svg>